<?xml version="1.0" encoding="utf-8"?><svg version="1.1" id="Layer_1" xmlns="http://www.w3.org/2000/svg" xmlns:xlink="http://www.w3.org/1999/xlink" x="0px" y="0px" viewBox="0 0 98.54 122.88" style="enable-background:new 0 0 98.54 122.88" xml:space="preserve"><g><path d="M49.02,95.45v24.11c0,1.85-1.5,3.32-3.32,3.32c-1.85,0-3.32-1.5-3.32-3.32V95.45c-10.17-0.8-19.33-5.29-26.15-12.12 C8.67,75.78,3.99,65.35,3.99,53.87c0-1.85,1.5-3.32,3.32-3.32c1.85,0,3.32,1.5,3.32,3.32c0,9.63,3.95,18.4,10.3,24.78 c6.35,6.35,15.12,10.3,24.78,10.3c9.63,0,18.4-3.95,24.78-10.3c0.12-0.12,0.24-0.24,0.36-0.36l-8.59-8.59 c-4.2,4.17-9.98,6.75-16.32,6.75c-6.38,0-12.18-2.62-16.39-6.82c-4.21-4.21-6.82-10.01-6.82-16.39V30.15L1,8.45 c-1.34-1.34-1.34-3.5,0-4.84c1.34-1.34,3.5-1.34,4.84,0l91.71,91.71c1.34,1.34,1.34,3.5,0,4.84c-1.34,1.34-3.5,1.34-4.84,0 L75.53,82.97c-0.12,0.12-0.24,0.24-0.36,0.36C68.34,90.16,59.19,94.66,49.02,95.45L49.02,95.45z M57.51,64.95L29.4,36.85V53.2 c0,4.56,1.85,8.67,4.85,11.67c3,3,7.14,4.85,11.67,4.85C50.44,69.72,54.52,67.9,57.51,64.95L57.51,64.95z M80.38,59.16 c0.26-1.73,0.4-3.49,0.4-5.29c0-1.85,1.5-3.32,3.32-3.32c1.85,0,3.32,1.5,3.32,3.32c0,3.76-0.5,7.41-1.45,10.88L80.38,59.16 L80.38,59.16z M45.92,0c6.38,0,12.18,2.62,16.39,6.82c4.21,4.21,6.82,10.01,6.82,16.39v24.7l-6.7-6.7V23.19 c0-4.56-1.85-8.67-4.85-11.67l0,0c-3-3-7.14-4.85-11.67-4.85c-4.56,0-8.67,1.85-11.67,4.85c-0.25,0.25-0.5,0.51-0.73,0.78 l-4.71-4.71c0.24-0.26,0.48-0.51,0.73-0.76C33.74,2.62,39.55,0,45.92,0L45.92,0z"/></g></svg>