<?xml version="1.0" standalone="no"?>
<!DOCTYPE svg PUBLIC "-//W3C//DTD SVG 20010904//EN"
 "http://www.w3.org/TR/2001/REC-SVG-20010904/DTD/svg10.dtd">
<svg version="1.0" xmlns="http://www.w3.org/2000/svg"
 width="1291.000000pt" height="1291.000000pt" viewBox="0 0 1291.000000 1291.000000"
 preserveAspectRatio="xMidYMid meet">

<g transform="translate(0.000000,1291.000000) scale(0.100000,-0.100000)"
fill="#000000" stroke="none">
<path d="M3272 8674 c-61 -22 -145 -103 -173 -166 l-24 -53 0 -1820 0 -1820
26 -56 c112 -239 441 -245 556 -11 l28 57 3 585 3 586 787 267 c433 147 790
268 794 267 4 0 9 -402 10 -892 l3 -893 28 -57 c55 -111 152 -172 277 -172 62
-1 85 4 132 27 65 32 121 89 152 156 l21 46 3 1820 c3 2027 8 1878 -68 1973
-28 36 -58 60 -104 82 -61 31 -71 32 -148 28 -130 -7 -213 -62 -267 -177 l-26
-56 -3 -622 -3 -621 -47 -17 c-26 -9 -337 -116 -692 -237 -355 -121 -690 -235
-744 -254 -55 -19 -101 -34 -103 -34 -1 0 -4 417 -5 928 l-3 927 -28 57 c-30
62 -74 106 -140 140 -55 28 -183 35 -245 12z"/>
<path d="M7443 8614 c-65 -23 -135 -93 -168 -165 -24 -55 -27 -71 -23 -138 7
-121 63 -207 166 -258 l57 -28 393 -3 392 -3 0 -1647 0 -1647 24 -50 c31 -67
113 -140 179 -160 172 -51 337 40 382 211 13 51 15 266 15 1676 l0 1617 393 3
392 3 54 30 c183 101 221 336 78 483 -23 24 -60 53 -82 65 l-40 22 -1085 2
c-944 1 -1090 0 -1127 -13z"/>
</g>
</svg>
