<?xml version="1.0" standalone="no"?>
<!DOCTYPE svg PUBLIC "-//W3C//DTD SVG 20010904//EN"
 "http://www.w3.org/TR/2001/REC-SVG-20010904/DTD/svg10.dtd">
<svg version="1.0" xmlns="http://www.w3.org/2000/svg"
 width="910.000000pt" height="909.000000pt" viewBox="0 0 910.000000 909.000000"
 preserveAspectRatio="xMidYMid meet">

<g transform="translate(0.000000,909.000000) scale(0.100000,-0.100000)"
fill="#000000" stroke="none">
<path d="M4318 9030 c-76 -5 -182 -15 -235 -24 -54 -8 -147 -20 -208 -27 -60
-6 -128 -18 -150 -26 -22 -8 -80 -21 -130 -29 -49 -8 -115 -23 -145 -34 -30
-10 -82 -24 -115 -31 -33 -6 -71 -17 -85 -24 -14 -8 -55 -21 -90 -30 -36 -9
-83 -25 -105 -35 -22 -10 -60 -25 -85 -33 -58 -19 -157 -60 -240 -99 -80 -37
-90 -42 -115 -56 -11 -6 -36 -18 -55 -27 -19 -8 -62 -31 -95 -50 -33 -19 -83
-46 -112 -59 -28 -14 -54 -30 -57 -35 -4 -6 -26 -19 -49 -30 -23 -11 -53 -29
-67 -39 -14 -11 -56 -40 -95 -66 -38 -25 -88 -59 -110 -76 -22 -16 -58 -42
-80 -56 -53 -35 -173 -133 -293 -239 -70 -61 -317 -308 -392 -391 -60 -66 -67
-75 -171 -209 -39 -49 -76 -98 -84 -107 -8 -10 -27 -36 -42 -59 -63 -94 -79
-118 -97 -145 -11 -16 -35 -54 -54 -84 -20 -30 -43 -67 -53 -81 -10 -15 -25
-42 -34 -60 -9 -19 -33 -65 -54 -104 -21 -38 -55 -104 -75 -145 -96 -195 -105
-216 -166 -380 -15 -41 -34 -93 -43 -115 -28 -75 -76 -230 -83 -270 -4 -22
-15 -60 -24 -85 -10 -25 -25 -88 -34 -140 -9 -52 -23 -117 -31 -143 -8 -27
-22 -114 -30 -195 -9 -81 -21 -165 -26 -187 -19 -85 -31 -473 -20 -688 6 -115
13 -212 16 -216 2 -5 14 -87 25 -182 12 -96 27 -196 35 -224 8 -27 21 -92 30
-144 9 -52 22 -108 29 -125 7 -17 18 -56 25 -86 16 -67 76 -259 101 -320 11
-25 24 -63 31 -85 6 -22 22 -61 35 -87 13 -26 24 -53 24 -59 0 -10 20 -57 74
-169 7 -14 18 -34 24 -45 6 -11 18 -36 27 -55 8 -19 33 -66 55 -105 21 -38 46
-85 55 -104 9 -18 24 -45 34 -60 10 -14 33 -51 53 -81 34 -54 118 -181 148
-223 62 -90 205 -270 305 -385 99 -114 388 -395 485 -472 14 -11 43 -34 65
-52 45 -37 107 -84 145 -111 14 -10 43 -31 65 -48 60 -45 144 -102 174 -118
14 -7 34 -21 44 -30 20 -16 84 -55 152 -91 22 -12 70 -38 108 -58 232 -127
394 -198 652 -287 28 -10 79 -28 115 -41 36 -13 98 -31 139 -40 41 -9 88 -22
105 -29 17 -7 65 -18 106 -25 41 -6 107 -20 145 -30 39 -11 149 -29 245 -40
96 -12 207 -26 245 -32 92 -13 660 -13 750 0 39 6 151 20 250 32 99 12 201 28
228 36 26 8 86 21 132 29 47 8 104 22 128 30 23 8 76 22 117 31 41 9 86 22
100 29 14 7 61 22 105 34 43 12 84 26 90 31 5 4 36 16 69 25 32 9 73 25 90 35
17 10 42 21 56 25 24 7 155 65 193 85 9 6 25 14 35 20 9 5 37 18 62 30 25 11
70 34 100 51 125 71 150 85 198 111 28 15 54 33 58 39 3 6 21 17 38 24 17 7
60 35 96 62 36 26 78 56 93 66 16 10 36 25 45 32 9 8 42 32 72 54 57 41 65 48
190 153 129 109 439 423 530 538 11 14 38 46 59 72 62 74 134 169 156 204 18
28 76 117 131 198 40 60 84 133 109 181 14 28 41 77 60 110 62 109 175 347
175 367 0 8 9 32 21 53 21 40 49 115 89 235 12 36 30 88 40 115 11 28 27 83
36 124 9 41 22 88 30 106 7 17 20 74 29 126 9 52 23 117 30 144 8 28 21 111
30 187 8 75 22 180 29 235 32 220 28 685 -8 923 -8 58 -22 161 -31 229 -8 68
-20 131 -24 140 -5 9 -17 61 -26 116 -10 55 -23 116 -31 135 -7 19 -22 71 -33
115 -24 96 -64 220 -96 295 -13 30 -26 71 -30 90 -4 19 -15 46 -25 60 -9 14
-20 39 -24 55 -6 27 -60 147 -89 200 -6 11 -17 34 -24 50 -8 17 -20 41 -28 55
-8 14 -26 48 -40 75 -47 92 -114 207 -185 315 -16 25 -38 61 -49 81 -11 21
-26 43 -34 50 -7 8 -24 30 -37 49 -13 19 -29 40 -35 47 -5 7 -26 33 -45 59
-19 25 -51 66 -70 90 -19 24 -46 58 -60 75 -14 18 -41 50 -60 72 -54 61 -390
398 -437 437 -23 19 -57 47 -75 63 -18 15 -71 56 -118 92 -47 36 -93 72 -102
80 -10 8 -35 26 -55 40 -21 14 -63 43 -93 64 -30 22 -69 47 -86 54 -17 8 -35
20 -38 26 -4 6 -30 24 -58 39 -27 15 -71 39 -97 54 -83 49 -155 87 -201 108
-25 12 -54 26 -65 32 -11 6 -31 17 -45 24 -116 56 -157 74 -168 74 -7 0 -32
10 -55 22 -41 21 -110 46 -237 88 -36 12 -88 30 -115 41 -28 11 -83 26 -121
34 -39 8 -87 21 -106 30 -20 8 -69 19 -110 25 -40 6 -104 20 -143 30 -38 11
-149 29 -245 40 -96 12 -202 25 -235 30 -90 13 -491 20 -647 10z m642 -439
c25 -5 113 -17 195 -26 83 -9 182 -24 220 -35 39 -10 110 -26 159 -35 49 -9
101 -22 116 -30 14 -7 44 -16 65 -20 46 -8 275 -83 290 -95 6 -4 33 -15 60
-23 60 -18 145 -56 322 -146 209 -105 227 -115 257 -138 16 -13 34 -23 41 -23
7 0 29 -13 50 -30 21 -16 43 -30 49 -30 6 0 22 -10 36 -21 14 -11 41 -31 60
-44 19 -13 53 -38 75 -54 22 -17 58 -43 80 -57 150 -101 464 -400 661 -630 69
-81 79 -93 152 -194 22 -30 52 -71 67 -90 14 -19 39 -55 54 -80 15 -25 41 -66
57 -92 91 -145 114 -187 197 -353 78 -158 130 -273 142 -315 4 -14 13 -35 21
-47 7 -12 22 -53 33 -91 10 -38 24 -79 30 -90 6 -11 20 -56 30 -100 10 -44 24
-89 30 -101 6 -11 20 -67 31 -123 11 -57 26 -125 34 -153 7 -27 19 -99 25
-160 7 -60 19 -155 29 -210 24 -145 24 -675 0 -825 -10 -58 -22 -154 -28 -215
-6 -60 -18 -135 -27 -165 -9 -30 -26 -102 -39 -160 -30 -137 -70 -284 -85
-312 -7 -13 -20 -50 -30 -83 -30 -106 -91 -247 -198 -463 -98 -198 -112 -223
-138 -257 -13 -15 -23 -33 -23 -40 0 -7 -13 -29 -30 -50 -16 -21 -30 -42 -30
-47 0 -5 -15 -29 -32 -53 -18 -24 -43 -59 -56 -77 -22 -32 -74 -101 -137 -184
-126 -167 -448 -500 -548 -568 -40 -27 -43 -26 -74 39 -11 22 -24 49 -31 60
-6 11 -21 40 -33 65 -32 67 -66 129 -102 186 -18 28 -41 65 -52 83 -11 18 -32
49 -47 68 -16 20 -28 39 -28 43 0 7 -14 25 -96 125 -131 159 -316 342 -443
437 -25 18 -61 45 -80 61 -20 15 -49 35 -64 45 -16 9 -45 29 -64 44 -19 15
-44 30 -56 34 -12 3 -30 14 -41 23 -20 18 -44 31 -203 109 -184 91 -208 102
-228 102 -11 0 -40 10 -65 21 -25 12 -83 32 -130 44 -47 13 -109 30 -138 39
-29 8 -83 20 -120 25 -37 5 -98 17 -137 26 -147 34 -758 30 -851 -6 -16 -5
-74 -17 -130 -24 -57 -8 -124 -23 -151 -34 -26 -10 -75 -24 -108 -31 -33 -7
-76 -20 -95 -30 -19 -10 -55 -23 -80 -30 -81 -21 -338 -148 -461 -227 -19 -12
-56 -34 -82 -50 -26 -15 -76 -49 -110 -76 -34 -26 -73 -55 -87 -64 -126 -86
-371 -339 -513 -530 -15 -21 -40 -54 -55 -75 -15 -20 -36 -51 -47 -69 -11 -18
-34 -55 -52 -83 -18 -28 -43 -71 -56 -96 -13 -25 -28 -54 -35 -65 -6 -11 -21
-40 -33 -65 -52 -109 -70 -140 -79 -140 -58 0 -492 442 -641 654 -19 26 -43
61 -54 76 -98 135 -150 215 -171 260 -9 19 -23 43 -32 54 -19 20 -21 25 -135
249 -42 84 -77 156 -77 161 0 4 -11 29 -24 55 -12 26 -28 65 -35 86 -7 22 -20
58 -31 80 -24 52 -56 148 -84 256 -13 47 -28 94 -34 106 -6 11 -20 69 -31 129
-11 60 -27 129 -34 154 -8 25 -20 95 -26 155 -7 61 -19 157 -29 215 -24 150
-24 680 0 825 10 55 22 147 28 205 7 58 22 147 36 199 13 51 24 103 24 116 0
21 40 167 81 290 11 33 28 87 38 120 22 71 62 170 96 241 14 28 25 55 25 59 0
10 140 288 178 356 15 26 38 67 51 90 13 24 32 55 43 69 10 14 42 60 71 104
208 314 468 604 767 854 41 35 86 72 100 84 14 11 41 32 60 45 19 13 53 37 75
53 22 17 74 53 115 80 41 27 86 57 100 67 13 10 38 24 55 31 16 7 38 20 48 30
10 9 41 28 68 42 196 100 340 169 371 180 21 6 40 16 43 20 3 5 36 19 72 30
37 11 71 24 77 29 13 11 223 80 316 105 239 62 388 94 495 106 55 6 136 16
180 22 44 6 112 14 150 19 95 10 609 3 665 -10z"/>
<path d="M4440 6691 c-107 -11 -325 -59 -390 -86 -30 -12 -68 -25 -84 -29 -17
-4 -41 -15 -55 -25 -14 -10 -43 -24 -63 -30 -20 -7 -48 -21 -62 -32 -14 -11
-40 -26 -58 -35 -33 -15 -46 -24 -148 -101 -70 -52 -168 -147 -251 -243 -94
-108 -140 -179 -212 -325 -84 -171 -82 -166 -145 -415 -23 -93 -23 -535 0
-630 41 -164 95 -323 130 -385 7 -11 24 -45 40 -75 26 -50 48 -86 103 -166 75
-111 270 -308 376 -382 86 -59 175 -112 239 -142 25 -12 68 -32 95 -45 28 -13
65 -27 84 -30 18 -4 52 -15 75 -25 22 -10 70 -23 106 -29 36 -6 106 -18 155
-26 113 -19 310 -19 406 -1 41 8 106 19 144 26 82 13 210 52 280 85 122 57
143 67 194 95 29 16 61 36 71 45 9 8 20 15 24 15 5 0 23 12 41 28 19 15 54 43
80 62 83 63 233 227 313 342 99 143 177 305 213 443 10 39 23 78 29 87 24 41
35 171 34 408 0 194 -3 258 -16 305 -56 206 -68 246 -92 305 -15 36 -34 76
-42 90 -8 14 -22 40 -30 59 -9 19 -27 49 -40 66 -13 18 -24 36 -24 42 0 5 -17
32 -37 59 -110 145 -268 307 -363 371 -30 20 -64 45 -76 55 -23 20 -63 43
-200 112 -51 25 -97 46 -104 46 -7 0 -38 11 -69 25 -137 60 -486 104 -671 86z"/>
</g>
</svg>
